<svg width="512" height="512" viewBox="0 0 512 512" fill="none" xmlns="http://www.w3.org/2000/svg">
  <rect width="512" height="512" rx="124" fill="#FEFAE0"/>
  <g filter="url(#shadow)">
    <rect x="52" y="52" width="408" height="408" rx="102" fill="#F5F1EB"/>
    <path d="M120 126H273L211 188L166 233L120 187V126Z" fill="#2D6A4F"/>
    <path d="M120 221L198 299L120 379V221Z" fill="#2D6A4F"/>
    <path d="M317 126H392V280L345 327L296 279H216L186 249L242 192L317 126Z" fill="#2D6A4F"/>
    <path d="M392 282V390L316 313L392 282Z" fill="#2D6A4F"/>
    <path d="M120 380L185 315L246 376H338L292 430H120V380Z" fill="#2D6A4F"/>
    <path d="M339 313L392 366V430H263L339 313Z" fill="#2D6A4F"/>
  </g>
  <path d="M210 189L266 245" stroke="#FEFAE0" stroke-width="24" stroke-linecap="square"/>
  <path d="M185 314L246 375" stroke="#FEFAE0" stroke-width="24" stroke-linecap="square"/>
  <path d="M296 279L345 327" stroke="#FEFAE0" stroke-width="24" stroke-linecap="square"/>
  <path d="M246 376L316 313" stroke="#FEFAE0" stroke-width="24" stroke-linecap="square"/>
  <path d="M212 187L317 126" stroke="#FEFAE0" stroke-width="24" stroke-linecap="square"/>
  <path d="M121 126L210 189" stroke="#FEFAE0" stroke-width="24" stroke-linecap="square"/>
  <path d="M121 378L185 315" stroke="#FEFAE0" stroke-width="24" stroke-linecap="square"/>
  <defs>
    <filter id="shadow" x="34" y="34" width="444" height="444" filterUnits="userSpaceOnUse" color-interpolation-filters="sRGB">
      <feFlood flood-opacity="0" result="BackgroundImageFix"/>
      <feColorMatrix in="SourceAlpha" type="matrix" values="0 0 0 0 0 0 0 0 0 0 0 0 0 0 0 0 0 0 127 0" result="hardAlpha"/>
      <feOffset dy="10"/>
      <feGaussianBlur stdDeviation="12"/>
      <feComposite in2="hardAlpha" operator="out"/>
      <feColorMatrix type="matrix" values="0 0 0 0 0.235294 0 0 0 0 0.219608 0 0 0 0 0.192157 0 0 0 0.16 0"/>
      <feBlend mode="normal" in2="BackgroundImageFix" result="effect1_dropShadow_0_1"/>
      <feBlend mode="normal" in="SourceGraphic" in2="effect1_dropShadow_0_1" result="shape"/>
    </filter>
  </defs>
</svg>
